<?xml version="1.0" encoding="utf-8"?>
<!-- Svg Vector Icons : http://www.onlinewebfonts.com/icon -->
<!DOCTYPE svg PUBLIC "-//W3C//DTD SVG 1.1//EN" "http://www.w3.org/Graphics/SVG/1.1/DTD/svg11.dtd">
<svg version="1.1" xmlns="http://www.w3.org/2000/svg" xmlns:xlink="http://www.w3.org/1999/xlink" x="0px" y="0px"
    viewBox="0 0 1000 1000" enable-background="new 0 0 1000 1000" xml:space="preserve">
    <metadata> Svg Vector Icons : http://www.onlinewebfonts.com/icon </metadata>
    <g>
        <g transform="translate(0.000000,511.000000) scale(0.100000,-0.100000)">
            <path
                d="M286.8,4211.9c-35.7-16.8-92.4-65.1-126-109.2L100,4025V103.4v-3921.6l44.1-56.7c23.1-31.5,69.3-77.7,100.8-100.8l56.7-44.1h4007.7h4007.7l56.7,44.1c31.5,23.1,75.6,65.1,96.6,94.5c18.9,27.3,354.8,1165.2,743.2,2525.5c659.2,2309.3,705.4,2479.4,682.3,2552.8c-31.5,102.9-90.3,176.3-178.4,218.3c-60.9,27.3-157.5,33.6-629.8,33.6h-558.4v657.1c0,638.2-2.1,657.1-48.3,739c-29.4,54.6-77.7,100.8-140.7,132.3l-92.4,46.2h-2219H3807.5l-6.3,489.2c-6.3,472.4-8.4,489.2-56.7,568.9c-31.5,50.4-84,94.5-136.5,119.7c-81.9,37.8-170,39.9-1671.1,37.8C647.9,4239.2,339.3,4235,286.8,4211.9z M3154.6,3099.2c0-474.5,2.1-491.2,48.3-560.5c25.2-37.8,79.8-92.4,117.6-117.6l71.4-48.3h2242.1h2244.2V1911v-461.9h-3084H1712.3l-69.3-46.2c-37.8-27.3-86.1-71.4-109.2-100.8c-21-29.4-207.8-642.4-413.6-1364.6L742.4-1374.5V1109l-2.1,2481.4h1207.1h1207.1V3099.2z M9114.7,657.7c-21-79.8-289.7-1016.1-594.1-2084.7l-552.1-1941.9l-3564.7-6.3c-2846.7-4.2-3560.5,0-3552.1,21c4.2,14.7,270.8,944.7,589.9,2063.7c319.1,1121.1,585.7,2049,589.9,2063.7c6.3,18.9,739,25.2,3566.8,25.2h3556.3L9114.7,657.7z" />
        </g>
    </g>
</svg>